<?xml version="1.0" standalone="no"?>
<!DOCTYPE svg PUBLIC "-//W3C//DTD SVG 20010904//EN"
 "http://www.w3.org/TR/2001/REC-SVG-20010904/DTD/svg10.dtd">
<svg version="1.0" xmlns="http://www.w3.org/2000/svg"
 width="400.000000pt" height="400.000000pt" viewBox="0 0 400.000000 400.000000"
 preserveAspectRatio="xMidYMid meet">
<metadata>
Created by potrace 1.14, written by Peter Selinger 2001-2017
</metadata>
<g transform="translate(0.000000,400.000000) scale(0.100000,-0.100000)"
fill="#000000" stroke="none">
<path d="M2661 3720 c-50 -177 -63 -247 -68 -380 -8 -200 14 -305 91 -433 19
-31 30 -57 25 -57 -32 0 -149 112 -179 170 -30 60 -60 179 -60 242 0 78 -22
78 -58 1 -26 -56 -27 -64 -27 -228 0 -153 2 -175 23 -223 27 -63 26 -63 5 -55
-57 20 -133 141 -162 258 -39 158 -8 321 79 413 23 25 87 31 110 10 7 -7 5 -1
-6 14 -16 24 -26 27 -70 28 -64 0 -109 -30 -183 -124 -105 -134 -152 -264
-152 -424 l0 -79 -114 5 c-181 8 -333 -18 -500 -83 -58 -23 -150 -69 -170 -85
-5 -4 -47 -22 -92 -39 -69 -27 -93 -43 -153 -101 -39 -39 -75 -70 -80 -70 -5
0 -22 -11 -38 -25 -22 -18 -44 -26 -80 -28 -57 -4 -93 -28 -134 -90 -30 -45
-63 -136 -73 -204 -4 -24 -21 -69 -38 -100 -121 -221 -197 -522 -216 -858 -7
-113 -16 -182 -32 -235 -19 -64 -22 -98 -22 -240 0 -137 4 -178 22 -245 27
-99 70 -193 105 -228 34 -34 37 -34 24 4 -12 35 -5 176 10 191 14 14 32 -150
32 -295 0 -123 1 -127 21 -127 21 0 21 2 17 158 l-4 159 24 -46 c14 -25 40
-67 58 -94 19 -26 34 -49 34 -52 0 -3 12 -32 27 -65 18 -42 32 -60 45 -60 10
0 18 1 18 3 0 15 -67 158 -92 199 -73 115 -131 243 -176 388 -32 100 -63 274
-60 327 l3 48 19 -55 c30 -88 94 -215 130 -256 32 -37 32 -35 -19 71 -29 61
-70 160 -91 220 -35 101 -38 121 -42 242 -3 104 1 159 18 260 32 189 78 349
135 476 l24 52 0 -105 c2 -250 86 -484 266 -735 19 -27 42 -59 50 -71 14 -19
13 -28 -4 -85 -25 -83 -36 -165 -23 -173 12 -7 18 9 27 69 4 22 13 64 21 93
22 79 40 56 47 -61 3 -50 13 -118 21 -150 23 -83 85 -216 122 -260 28 -34 31
-42 23 -70 -5 -18 -9 -42 -9 -55 0 -19 4 -22 20 -17 22 7 24 -2 14 -54 -6 -28
-10 -31 -43 -30 -20 0 -45 4 -56 8 -16 7 -13 9 18 15 20 4 41 15 47 26 9 16 4
22 -37 42 -27 14 -74 54 -116 100 -39 43 -72 76 -75 74 -17 -17 124 -182 164
-192 36 -9 18 -24 -30 -24 -93 0 -188 44 -278 128 -67 62 -63 28 4 -39 49 -47
150 -109 180 -109 6 0 28 -11 48 -25 20 -14 59 -30 87 -37 48 -11 51 -15 75
-68 13 -30 33 -81 43 -112 18 -54 21 -58 50 -58 17 0 25 4 18 8 -6 4 -21 32
-33 62 -12 30 -32 77 -46 104 -14 26 -24 49 -22 51 2 1 38 10 82 19 79 16 180
62 178 81 -1 6 -10 11 -22 13 -11 2 -20 8 -20 13 0 5 -7 9 -16 9 -9 0 -39 12
-66 27 -70 38 -88 77 -88 190 0 95 20 155 76 228 30 40 38 41 106 18 41 -15
48 -21 44 -38 -3 -11 -6 -30 -6 -43 0 -16 -5 -23 -17 -21 -68 6 -80 -11 -35
-53 32 -30 64 -42 92 -33 27 9 27 78 0 123 -17 28 -18 32 -4 32 9 0 52 -19 94
-42 69 -37 79 -46 90 -81 l11 -39 -63 -62 c-35 -34 -88 -83 -118 -109 -31 -27
-48 -47 -39 -47 34 0 238 199 239 233 0 6 11 0 25 -15 25 -29 41 -99 33 -143
-8 -37 4 -30 37 24 24 39 32 46 39 34 7 -13 10 -13 17 -2 21 33 -1 148 -47
249 -92 203 -267 359 -587 527 -15 8 -27 17 -27 21 0 3 15 22 33 41 l32 35
-37 -27 c-20 -15 -44 -27 -52 -27 -27 0 -133 112 -141 150 -7 31 -4 37 25 62
19 15 48 34 67 43 21 10 33 23 33 35 0 13 7 20 20 20 27 0 89 26 113 48 18 16
18 17 -4 22 -21 5 -18 9 26 31 57 30 64 42 33 56 -22 10 -21 11 15 18 21 4 58
5 83 1 38 -5 44 -3 44 12 0 10 -5 23 -11 29 -7 7 6 10 44 11 58 0 111 21 120
47 4 8 17 15 29 15 24 1 67 39 88 79 11 21 14 22 21 8 8 -13 15 -14 40 -5 42
14 125 100 150 154 25 51 39 64 39 35 0 -31 29 -26 41 7 9 24 96 99 104 90 2
-2 -7 -24 -20 -49 l-23 -46 63 -11 c34 -7 74 -12 89 -12 16 0 26 -6 26 -14 0
-18 101 -31 159 -21 30 5 45 3 56 -8 8 -8 33 -18 55 -22 23 -4 52 -18 65 -31
13 -13 35 -24 48 -24 13 0 35 -8 48 -18 26 -20 123 -57 177 -67 17 -4 32 -10
32 -15 0 -22 -33 -81 -55 -98 -40 -32 -32 -50 38 -82 34 -17 68 -30 76 -30 18
0 157 -148 204 -218 50 -74 129 -237 161 -334 48 -143 44 -346 -10 -557 -36
-137 -60 -199 -135 -348 -62 -123 -84 -157 -174 -276 -32 -41 -34 -47 -17 -47
12 0 34 18 53 41 42 53 129 182 129 191 0 4 10 23 22 44 l21 36 15 -37 c14
-36 14 -37 -16 -68 -31 -33 -112 -172 -112 -194 0 -7 8 -13 18 -13 13 0 25 14
37 43 27 63 105 177 122 177 15 0 11 -12 -13 -40 -16 -20 -44 -116 -44 -152 0
-21 5 -28 20 -28 16 0 20 7 20 30 0 28 33 136 45 148 3 3 21 -10 41 -29 29
-28 34 -39 30 -62 -3 -15 -9 -41 -12 -57 l-6 -30 278 0 c154 0 303 3 332 6
l52 7 0 44 c0 28 -4 42 -10 38 -6 -4 -95 -8 -198 -9 -132 -2 -207 -8 -257 -20
-84 -20 -125 -10 -125 31 0 26 -25 53 -114 128 -52 44 -80 96 -71 133 3 14 15
43 25 66 30 64 66 167 74 208 l7 36 53 -5 c81 -8 116 8 159 73 20 31 37 64 37
73 0 9 7 26 15 39 10 13 20 61 25 119 5 54 14 116 19 138 24 94 11 327 -25
450 -4 11 28 -13 72 -57 44 -42 93 -87 109 -101 26 -21 158 -111 193 -131 9
-5 12 4 12 37 0 42 -2 45 -32 51 -88 18 -217 109 -317 226 -97 112 -95 108
-76 184 19 73 14 112 -17 152 -23 28 -83 58 -98 49 -5 -3 0 -15 11 -26 11 -11
24 -30 28 -42 36 -97 16 -88 -48 22 -43 74 -48 88 -39 112 7 20 6 39 -3 66 -7
21 -12 61 -11 88 6 120 -60 305 -172 477 -24 38 -90 125 -147 194 -166 201
-206 254 -258 339 -90 148 -130 275 -140 450 -7 119 -7 120 -20 75z m36 -335
c36 -123 133 -282 277 -455 38 -47 73 -87 76 -90 74 -68 242 -338 261 -419 l7
-33 -27 26 c-33 32 -47 33 -57 4 -11 -36 -37 -67 -56 -68 -14 0 -18 8 -18 38
-1 73 -56 176 -147 272 -18 19 -33 38 -33 43 0 20 -114 240 -174 337 -110 175
-130 230 -140 385 -6 85 -7 87 31 -40z m-460 -42 c-60 -116 -40 -343 44 -490
l30 -52 -31 15 c-16 9 -42 15 -58 13 -46 -3 -133 13 -148 28 -19 19 -18 138 1
221 18 78 70 181 125 250 45 56 61 63 37 15z m259 -297 c33 -85 115 -174 195
-209 l54 -24 -57 -8 c-32 -4 -58 -10 -58 -13 0 -3 18 -21 40 -40 36 -30 90
-115 90 -140 0 -5 -48 15 -107 44 -60 30 -125 59 -146 66 -43 13 -64 51 -92
167 -22 88 -16 270 10 351 l18 55 13 -90 c7 -49 25 -121 40 -159z m-392 -246
c114 -23 124 -28 136 -66 7 -19 13 -79 13 -132 2 -91 0 -100 -30 -154 -36 -67
-26 -74 33 -24 61 52 87 115 92 219 3 48 8 87 13 87 10 0 46 -50 58 -81 l10
-24 0 23 c1 13 -4 32 -9 43 -13 24 -16 24 65 -6 186 -70 315 -161 315 -222 0
-17 -7 -49 -15 -72 -15 -45 -7 -54 18 -18 l16 22 0 -22 c1 -38 49 -227 67
-263 26 -51 123 -143 169 -159 22 -8 55 -31 74 -52 l33 -39 -7 -81 -7 -81 -36
7 c-42 8 -83 28 -100 48 -10 12 -6 15 25 21 39 6 71 21 63 29 -3 3 -28 0 -57
-6 -40 -8 -61 -8 -95 3 l-43 13 43 9 c51 11 46 28 -7 28 -21 0 -53 3 -70 6
l-31 7 23 31 c18 24 57 114 57 132 0 1 -24 7 -52 14 -61 13 -167 50 -173 60
-3 4 4 15 15 25 11 10 20 22 20 27 0 15 -23 8 -46 -13 -13 -12 -32 -19 -46
-17 -21 3 -20 5 18 33 23 17 47 38 53 48 22 34 0 37 -39 6 -35 -28 -49 -33
-116 -37 -73 -5 -77 -4 -70 14 9 22 9 24 7 44 -1 13 -3 13 -14 -1 -16 -22
-102 -39 -156 -32 l-44 6 35 18 c77 39 151 147 129 187 -9 16 -10 16 -16 -3
-20 -59 -30 -76 -68 -113 -48 -48 -96 -59 -191 -48 l-55 7 19 50 c11 27 20 63
20 79 0 16 7 59 16 97 18 75 15 204 -6 243 -17 32 -23 18 -11 -27 32 -115 -13
-286 -101 -377 l-28 -30 0 56 c0 113 -30 207 -89 282 -46 58 -143 135 -200
158 l-55 23 35 7 c46 9 332 1 393 -12z m-415 -31 c193 -44 352 -306 295 -488
-3 -10 -8 -10 -18 -2 -16 13 -25 4 -50 -50 -17 -37 -139 -169 -155 -169 -6 0
-13 9 -16 20 -10 31 -22 24 -61 -35 -40 -60 -54 -68 -54 -30 0 14 -4 25 -10
25 -5 0 -10 -5 -10 -10 0 -19 -57 -102 -64 -92 -3 6 -1 12 6 14 34 12 -124
199 -251 297 -76 59 -192 121 -283 151 l-76 26 28 45 c30 48 104 115 158 143
18 9 72 23 120 30 66 10 81 14 63 20 -22 8 -21 9 20 33 39 22 53 24 132 21 76
-3 84 -1 60 9 -15 7 -39 12 -52 13 -36 0 -19 11 51 30 63 18 84 18 167 -1z
m1096 -13 c6 -6 30 -20 54 -31 59 -26 162 -127 199 -195 44 -80 77 -201 51
-185 -50 31 -100 -83 -80 -183 6 -31 20 -71 31 -89 42 -71 13 -86 -48 -25 -74
74 -121 188 -142 344 -6 45 -24 126 -40 179 -28 90 -81 189 -102 189 -5 0 -6
4 -3 10 7 12 66 2 80 -14z m-1855 -316 c0 -5 -5 -10 -11 -10 -5 0 -7 5 -4 10
3 6 8 10 11 10 2 0 4 -4 4 -10z m2363 -80 c-17 -41 -14 -76 11 -113 32 -46 36
-77 7 -50 -10 10 -22 28 -26 41 -4 13 -21 39 -38 59 l-31 35 25 44 24 44 17
-22 c10 -13 15 -30 11 -38z m-2363 30 c68 -10 174 -48 219 -80 14 -10 51 -33
81 -52 66 -41 130 -97 228 -196 80 -82 95 -113 30 -60 -88 70 -174 109 -276
123 -82 11 -62 -10 29 -30 93 -21 173 -65 234 -128 l40 -42 -40 -3 c-22 -2
-65 2 -95 8 -93 21 -260 11 -260 -16 0 -3 37 -3 83 0 87 8 160 -3 184 -27 13
-13 13 -15 -4 -14 -73 0 -103 -5 -124 -22 -23 -19 -23 -20 -6 -33 17 -12 14
-15 -27 -36 -42 -20 -61 -42 -36 -42 6 0 10 -4 10 -9 0 -13 -49 -29 -112 -37
-61 -7 -71 -16 -38 -34 11 -6 18 -15 15 -19 -5 -9 -81 -51 -91 -51 -3 0 -4 73
-2 163 4 149 6 167 32 229 17 42 41 79 63 98 39 35 37 51 -3 29 -36 -19 -81
-87 -106 -161 -18 -53 -21 -88 -22 -220 -1 -86 -4 -154 -7 -152 -3 2 -22 36
-42 76 -37 75 -77 210 -77 261 0 38 25 134 50 192 13 31 16 45 8 43 -35 -12
-88 -163 -88 -250 0 -144 137 -414 266 -524 44 -38 53 -50 42 -58 -38 -30
-133 -157 -155 -210 -16 -35 -26 -28 -80 52 -41 62 -47 72 -111 193 -74 138
-122 290 -136 434 l-7 60 27 -63 c30 -72 41 -75 25 -5 -37 157 -30 394 13 489
30 64 58 102 93 125 26 17 40 17 173 -1z m2177 -81 c30 -19 33 -25 28 -50 -8
-37 11 -95 38 -114 28 -19 16 -29 -27 -21 -49 9 -120 89 -111 126 8 35 26 80
33 80 2 0 20 -10 39 -21z m103 -4 c18 -19 24 -35 22 -58 -2 -21 4 -42 16 -57
27 -35 34 -81 16 -114 -17 -34 -17 -36 -4 -36 6 0 15 10 20 23 8 21 9 21 9 -5
2 -58 -49 -77 -106 -41 -13 9 -23 10 -27 4 -4 -6 10 -19 31 -30 23 -12 31 -20
21 -21 -10 0 -18 -5 -18 -11 0 -8 14 -9 43 -5 l42 7 -21 -21 c-12 -12 -39 -24
-61 -27 -35 -5 -41 -2 -58 23 -10 15 -20 48 -23 73 -3 31 -13 53 -28 68 -13
12 -24 29 -24 38 0 8 -5 15 -12 15 -6 0 -9 3 -5 6 3 4 22 -3 42 -15 44 -26 92
-27 124 -2 24 19 22 41 -5 41 -8 0 -14 1 -15 3 0 1 -6 39 -13 85 -13 91 -7
101 34 57z m124 -237 c0 -46 -2 -114 -3 -151 -3 -52 1 -72 13 -86 20 -22 20
-31 -3 -58 -46 -55 -78 -12 -62 81 6 35 11 79 11 98 0 21 7 41 16 49 14 11 16
27 11 92 -4 58 -2 76 6 68 6 -6 11 -47 11 -93z m66 -9 c0 -41 -15 -36 -28 10
-17 56 -15 70 8 42 11 -13 20 -36 20 -52z m-8 -141 c-8 -8 -12 -9 -12 -1 0 6
-3 20 -6 30 -7 17 -6 17 12 1 14 -14 16 -20 6 -30z m13 -96 c31 -28 43 -71 24
-83 -19 -12 -32 -11 -53 4 -16 11 -17 17 -7 36 10 18 9 32 -3 68 -20 58 -20
92 0 38 8 -22 26 -50 39 -63z m40 49 c3 -5 -8 -4 -24 2 -17 6 -28 15 -25 19 6
9 39 -6 49 -21z m-190 -28 c-6 -35 -75 -186 -82 -180 -1 2 0 47 4 100 l6 97
31 9 c48 14 49 13 41 -26z m315 -37 c0 -27 -15 -42 -25 -26 -8 13 3 50 16 50
5 0 9 -11 9 -24z m-35 -37 c15 -28 15 -34 -1 -67 -10 -21 -18 -32 -20 -27 -1
6 -5 22 -8 38 -4 15 -13 27 -20 27 -12 0 -12 5 0 30 19 38 29 38 49 -1z m-216
-36 c33 6 34 5 17 -8 -11 -8 -31 -15 -45 -16 -14 0 -36 -2 -48 -5 -20 -3 -22
-1 -12 23 16 43 20 45 36 23 13 -18 22 -21 52 -17z m159 -15 c13 -13 15 -111
4 -140 -6 -13 -10 -14 -22 -5 -20 16 -26 157 -7 157 7 0 18 -5 25 -12z m-58
-28 c0 -13 -41 -23 -71 -18 l-24 5 25 11 c32 14 70 15 70 2z m-132 -27 c-16
-2 -40 -2 -55 0 -16 2 -3 4 27 4 30 0 43 -2 28 -4z m-154 -9 c9 -3 16 -12 16
-20 0 -20 -13 -17 -28 6 -13 22 -12 23 12 14z m258 -27 c4 -7 8 -17 8 -24 0
-6 12 -21 26 -32 l25 -20 -30 -15 c-30 -16 -30 -15 -55 17 -14 19 -29 49 -32
67 -7 32 -7 33 22 26 16 -4 32 -13 36 -19z m25 1 c-3 -8 -6 -5 -6 6 -1 11 2
17 5 13 3 -3 4 -12 1 -19z m178 -175 c9 -45 15 -113 13 -158 l-3 -80 -18 39
c-10 22 -15 46 -13 53 3 7 -3 45 -13 85 -11 40 -21 116 -25 168 l-5 95 24 -62
c13 -33 31 -96 40 -140z m-312 177 c22 0 27 -5 27 -24 0 -13 11 -40 25 -60 23
-34 24 -62 2 -77 -5 -4 -3 -19 6 -35 56 -112 100 -390 79 -499 l-8 -40 -6 51
c-24 188 -111 431 -213 589 -33 53 -36 60 -24 82 12 21 18 24 49 19 19 -3 47
-6 63 -6z m229 -112 c1 -54 -5 -77 -33 -139 l-34 -74 -7 50 c-11 86 -9 101 17
129 14 15 25 33 25 40 0 14 23 66 28 61 2 -1 4 -32 4 -67z m-92 -33 c-15 -18
-26 -19 -33 -2 -3 8 4 14 20 15 22 2 24 0 13 -13z m-16 -38 c3 3 6 -20 6 -53
l-1 -59 -13 35 c-7 19 -18 47 -24 63 -11 25 -10 27 7 18 10 -6 21 -7 25 -4z
m142 -85 c12 -46 0 -82 -28 -82 -22 0 -23 13 -2 45 9 14 14 36 12 50 -8 40 7
29 18 -13z m-2388 -71 c15 -10 79 -49 142 -86 63 -37 143 -90 177 -117 138
-109 246 -259 297 -411 23 -70 20 -75 -21 -36 -21 20 -59 51 -85 69 -27 18
-48 38 -48 45 0 17 -72 83 -104 95 -16 6 -52 10 -80 9 -28 -1 -62 3 -75 10
-24 13 -24 13 44 80 46 45 62 67 51 69 -19 4 -91 -38 -133 -78 -32 -30 -33
-31 -65 -14 -54 28 -99 65 -175 143 -40 41 -73 70 -73 65 0 -34 104 -146 188
-202 28 -19 52 -36 52 -38 0 -2 -39 10 -87 27 -88 31 -173 79 -206 117 -18 19
-18 21 4 64 34 68 143 207 162 208 4 0 20 -8 35 -19z m2307 -61 c-18 -36 -21
-36 -28 -9 -5 18 10 31 41 38 1 1 -4 -12 -13 -29z m97 -7 c8 -25 13 -89 13
-188 0 -130 -3 -159 -23 -215 -18 -55 -29 -70 -63 -92 -52 -34 -88 -42 -123
-28 -22 8 -26 14 -20 33 4 12 13 63 20 112 6 50 12 83 13 75 1 -8 6 -33 12
-54 l11 -39 19 29 c10 16 19 38 20 49 1 18 2 18 6 2 7 -28 32 -16 67 31 29 41
31 50 31 128 0 72 -3 86 -21 104 l-21 22 -24 -39 c-21 -35 -23 -36 -27 -15 -2
15 4 31 16 43 11 10 24 29 28 41 15 50 48 50 66 1z m-42 -149 c0 -22 -8 -63
-17 -89 l-16 -50 -18 40 c-23 51 -25 125 -4 125 8 0 20 9 27 20 16 26 28 8 28
-46z m-2465 -148 c33 -15 88 -36 123 -47 34 -11 62 -24 62 -28 0 -5 -8 -19
-18 -32 -10 -13 -33 -58 -51 -99 -35 -79 -67 -130 -81 -130 -9 0 -45 73 -61
125 -8 24 -49 229 -49 243 0 2 3 2 8 0 4 -2 34 -16 67 -32z m-689 -161 c8 -44
27 -121 40 -171 25 -89 25 -91 10 -167 -9 -42 -16 -86 -17 -99 -1 -42 -49 100
-65 195 -12 66 -15 129 -11 222 4 131 19 208 25 135 1 -19 10 -71 18 -115z
m1199 25 c8 -13 -5 -13 -25 0 -13 8 -13 10 2 10 9 0 20 -4 23 -10z m195 -226
c0 -12 -4 -26 -10 -29 -6 -3 -10 5 -10 19 0 13 -3 33 -7 43 -6 16 -5 16 10 4
9 -7 17 -24 17 -37z m-535 -274 c3 -5 -3 -10 -15 -10 -12 0 -18 5 -15 10 3 6
10 10 15 10 5 0 12 -4 15 -10z"/>
<path d="M1686 2363 c4 -10 13 -47 20 -83 l12 -65 1 48 c1 45 -20 117 -35 117
-3 0 -3 -8 2 -17z"/>
<path d="M2758 2753 c7 -3 16 -2 19 1 4 3 -2 6 -13 5 -11 0 -14 -3 -6 -6z"/>
<path d="M2285 2056 c-167 -26 -388 -120 -476 -203 -63 -59 -63 -74 0 -26 64
50 148 97 246 138 59 25 233 74 287 81 27 4 48 10 48 15 0 11 -2 11 -105 -5z"/>
<path d="M2533 1748 c-29 -16 -81 -34 -115 -39 -38 -6 -100 -28 -155 -55 -75
-37 -104 -58 -153 -111 -33 -36 -60 -73 -60 -81 0 -13 3 -13 18 1 10 10 22 17
27 17 5 0 29 17 54 38 103 85 195 126 317 138 53 6 70 3 108 -16 66 -32 99
-78 104 -148 l4 -57 -22 42 c-55 107 -203 177 -304 143 -41 -13 -44 -20 -18
-43 16 -15 22 -15 71 0 42 12 62 13 90 4 44 -13 125 -84 150 -131 22 -41 45
-49 73 -23 25 22 57 89 58 119 0 12 11 29 25 38 37 24 31 43 -16 49 -48 6 -57
13 -41 29 22 22 13 28 -40 28 -76 0 -100 8 -93 31 4 11 2 19 -5 19 -7 0 -9 8
-5 20 9 27 -8 24 -72 -12z"/>
<path d="M2357 1511 c-3 -15 -3 -38 0 -51 5 -19 3 -21 -14 -16 -10 3 -27 0
-38 -7 -17 -13 -16 -16 21 -41 62 -42 94 -31 94 34 0 29 -40 110 -54 110 -2 0
-6 -13 -9 -29z"/>
<path d="M2190 1402 c0 -53 35 -134 73 -170 24 -23 97 -57 96 -45 0 5 -22 25
-49 45 -32 24 -57 54 -70 84 -20 43 -20 48 -6 77 14 30 14 32 -7 44 -34 19
-37 16 -37 -35z"/>
<path d="M2540 1309 c-52 -38 -99 -75 -105 -81 -10 -11 50 18 69 33 111 88
146 119 133 119 -1 0 -45 -32 -97 -71z"/>
<path d="M3811 1054 c18 -18 140 -64 169 -64 38 0 20 18 -28 29 -26 5 -69 19
-96 30 -57 25 -65 26 -45 5z"/>
<path d="M1259 702 c-6 -15 -9 -59 -7 -97 4 -85 37 -159 88 -192 47 -33 73
-29 27 4 -43 31 -83 106 -93 176 -5 41 -3 53 15 77 26 36 26 46 0 53 -15 4
-23 -1 -30 -21z"/>
<path d="M1910 691 c0 -6 9 -15 20 -21 13 -7 20 -7 20 -1 0 6 -9 15 -20 21
-13 7 -20 7 -20 1z"/>
<path d="M2091 452 c-18 -34 -24 -125 -12 -182 12 -57 52 -119 142 -220 30
-34 52 -50 68 -50 22 0 17 8 -42 69 -65 67 -67 71 -67 120 0 59 22 101 52 101
65 0 132 -89 162 -212 13 -51 24 -78 33 -78 9 0 12 7 9 18 -2 9 -8 33 -11 52
-37 192 -167 369 -292 395 -25 5 -34 2 -42 -13z"/>
<path d="M3660 451 c0 -20 106 -102 153 -117 26 -9 73 -31 104 -50 31 -19 63
-34 70 -34 25 0 13 16 -29 39 l-43 23 43 -5 c35 -4 42 -2 42 13 0 14 -12 18
-74 23 -76 5 -137 30 -223 89 -24 16 -43 25 -43 19z"/>
<path d="M647 33 c-12 -12 -7 -33 8 -33 17 0 19 9 7 28 -5 7 -11 9 -15 5z"/>
</g>
</svg>
